<svg width="31" height="29" viewBox="0 0 31 29" fill="none" xmlns="http://www.w3.org/2000/svg">
<path d="M15.5 2.375C15.0691 2.375 14.6424 2.45987 14.2443 2.62477C13.8462 2.78967 13.4845 3.03136 13.1798 3.33606C12.8751 3.64075 12.6334 4.00247 12.4685 4.40057C12.3036 4.79867 12.2188 5.22535 12.2188 5.65625C12.2188 6.08715 12.3036 6.51383 12.4685 6.91193C12.6334 7.31003 12.8751 7.67175 13.1798 7.97644C13.4845 8.28114 13.8462 8.52283 14.2443 8.68773C14.6424 8.85263 15.0691 8.9375 15.5 8.9375C16.3702 8.9375 17.2048 8.5918 17.8202 7.97644C18.4355 7.36109 18.7812 6.52649 18.7812 5.65625C18.7812 4.78601 18.4355 3.95141 17.8202 3.33606C17.2048 2.7207 16.3702 2.375 15.5 2.375ZM10.0312 5.65625C10.0313 4.20585 10.6074 2.81485 11.633 1.78926C12.6586 0.76367 14.0496 0.1875 15.5 0.1875C16.9504 0.1875 18.3414 0.76367 19.367 1.78926C20.3926 2.81485 20.9688 4.20585 20.9688 5.65625C20.9688 7.10665 20.3926 8.49765 19.367 9.52324C18.3414 10.5488 16.9504 11.125 15.5 11.125C14.0496 11.125 12.6586 10.5488 11.633 9.52324C10.6074 8.49765 10.0313 7.10665 10.0312 5.65625ZM6.75 16.5938C6.75146 16.1942 6.79229 15.8077 6.8725 15.4344L2.62 16.5719C2.2037 16.6835 1.81349 16.8761 1.47164 17.1386C1.12979 17.4012 0.843013 17.7284 0.627685 18.1018C0.412357 18.4752 0.272698 18.8873 0.216688 19.3147C0.160677 19.742 0.189412 20.1762 0.30125 20.5925L1.15 23.7622C1.37819 24.6127 1.77522 25.4086 2.31743 26.1024C2.85964 26.7963 3.53595 27.3739 4.30608 27.8009C5.0762 28.2279 5.92438 28.4956 6.80011 28.5879C7.67583 28.6803 8.56119 28.5954 9.40344 28.3384C8.81839 27.7709 8.31551 27.1245 7.90938 26.4178C6.87889 26.5173 5.84651 26.2481 4.99579 25.6581C4.14507 25.0682 3.53113 24.1956 3.26312 23.1956L2.41219 20.0237C2.33739 19.7435 2.37695 19.4451 2.52217 19.194C2.66738 18.943 2.90637 18.7599 3.18656 18.685L6.75 17.7313V16.5938ZM21.8131 28.4019L21.5944 28.3406C22.1784 27.7719 22.6838 27.1266 23.0906 26.4178C24.1211 26.5173 25.1535 26.2481 26.0042 25.6581C26.8549 25.0682 27.4689 24.1956 27.7369 23.1956L28.5856 20.0237C28.6605 19.7438 28.6212 19.4456 28.4765 19.1946C28.3317 18.9436 28.0932 18.7603 27.8134 18.685L24.25 17.7313V16.5938C24.2485 16.1942 24.2077 15.8077 24.1275 15.4344L28.3778 16.5719C28.7943 16.6833 29.1848 16.8757 29.5268 17.1381C29.8689 17.4006 30.156 17.7278 30.3715 18.1012C30.587 18.4746 30.7269 18.8868 30.783 19.3143C30.8392 19.7418 30.8106 20.1761 30.6987 20.5925L29.85 23.7622C29.3989 25.4427 28.2989 26.8753 26.7917 27.745C25.2846 28.6146 23.4938 28.8523 21.8131 28.4019ZM2.375 8.9375C2.375 8.35734 2.60547 7.80094 3.0157 7.3907C3.42594 6.98047 3.98234 6.75 4.5625 6.75C5.14266 6.75 5.69906 6.98047 6.1093 7.3907C6.51953 7.80094 6.75 8.35734 6.75 8.9375C6.75 9.51766 6.51953 10.0741 6.1093 10.4843C5.69906 10.8945 5.14266 11.125 4.5625 11.125C3.98234 11.125 3.42594 10.8945 3.0157 10.4843C2.60547 10.0741 2.375 9.51766 2.375 8.9375ZM4.5625 4.5625C3.40218 4.5625 2.28938 5.02344 1.46891 5.84391C0.648436 6.66438 0.1875 7.77718 0.1875 8.9375C0.1875 10.0978 0.648436 11.2106 1.46891 12.0311C2.28938 12.8516 3.40218 13.3125 4.5625 13.3125C5.72282 13.3125 6.83562 12.8516 7.65609 12.0311C8.47656 11.2106 8.9375 10.0978 8.9375 8.9375C8.9375 7.77718 8.47656 6.66438 7.65609 5.84391C6.83562 5.02344 5.72282 4.5625 4.5625 4.5625ZM26.4375 6.75C25.8573 6.75 25.3009 6.98047 24.8907 7.3907C24.4805 7.80094 24.25 8.35734 24.25 8.9375C24.25 9.51766 24.4805 10.0741 24.8907 10.4843C25.3009 10.8945 25.8573 11.125 26.4375 11.125C27.0177 11.125 27.5741 10.8945 27.9843 10.4843C28.3945 10.0741 28.625 9.51766 28.625 8.9375C28.625 8.35734 28.3945 7.80094 27.9843 7.3907C27.5741 6.98047 27.0177 6.75 26.4375 6.75ZM22.0625 8.9375C22.0625 7.77718 22.5234 6.66438 23.3439 5.84391C24.1644 5.02344 25.2772 4.5625 26.4375 4.5625C27.5978 4.5625 28.7106 5.02344 29.5311 5.84391C30.3516 6.66438 30.8125 7.77718 30.8125 8.9375C30.8125 10.0978 30.3516 11.2106 29.5311 12.0311C28.7106 12.8516 27.5978 13.3125 26.4375 13.3125C25.2772 13.3125 24.1644 12.8516 23.3439 12.0311C22.5234 11.2106 22.0625 10.0978 22.0625 8.9375ZM12.2188 13.3125C11.3485 13.3125 10.5139 13.6582 9.89856 14.2736C9.2832 14.8889 8.9375 15.7235 8.9375 16.5938V22.0625C8.9375 23.803 9.6289 25.4722 10.8596 26.7029C12.0903 27.9336 13.7595 28.625 15.5 28.625C17.2405 28.625 18.9097 27.9336 20.1404 26.7029C21.3711 25.4722 22.0625 23.803 22.0625 22.0625V16.5938C22.0625 15.7235 21.7168 14.8889 21.1014 14.2736C20.4861 13.6582 19.6515 13.3125 18.7812 13.3125H12.2188ZM11.125 16.5938C11.125 16.3037 11.2402 16.0255 11.4454 15.8204C11.6505 15.6152 11.9287 15.5 12.2188 15.5H18.7812C19.0713 15.5 19.3495 15.6152 19.5546 15.8204C19.7598 16.0255 19.875 16.3037 19.875 16.5938V22.0625C19.875 23.2228 19.4141 24.3356 18.5936 25.1561C17.7731 25.9766 16.6603 26.4375 15.5 26.4375C14.3397 26.4375 13.2269 25.9766 12.4064 25.1561C11.5859 24.3356 11.125 23.2228 11.125 22.0625V16.5938Z" fill="#B0A0ED"/>
</svg>
