<svg width="35" height="35" viewBox="0 0 35 35" fill="none" xmlns="http://www.w3.org/2000/svg">
<path d="M31.6504 1.3877L21.5742 5.17139L25.1904 7.45117C18.7305 15.5859 9.38574 20.5967 1.49023 22.5039L3.72695 26.5781C12.5986 23.6865 21.9912 18.4707 28.041 9.25586L30.7959 10.9922L31.6504 1.3877ZM32.1768 9.36523L31.8486 13.1113L28.3418 10.8965C28.2188 11.0811 28.0889 11.2588 27.959 11.4434V33.291H33.291V9.36523H32.1768ZM21.8818 18.1152C21.0137 18.8672 20.1182 19.5781 19.209 20.248V33.291H24.541V18.1152H21.8818ZM13.4258 23.8574C12.4414 24.377 11.457 24.8555 10.459 25.3066V33.291H15.791V23.8574H13.4258ZM1.70898 26.8652V33.291H7.04102V26.8652H6.65273C5.63965 27.2412 4.62725 27.5898 3.621 27.9111L3.13838 28.0615L2.48213 26.8652H1.70898Z" fill="#B0A0ED"/>
</svg>
