<svg width="35" height="35" viewBox="0 0 35 35" fill="none" xmlns="http://www.w3.org/2000/svg">
<path d="M26.1042 25.3607C25.7251 24.1941 24.6313 23.3337 23.3334 23.3337H21.8751V18.9587C21.8751 18.5719 21.7214 18.201 21.4479 17.9275C21.1745 17.654 20.8035 17.5003 20.4167 17.5003H11.6667V14.5837H14.5834C14.9702 14.5837 15.3411 14.43 15.6146 14.1565C15.8881 13.883 16.0417 13.5121 16.0417 13.1253V10.2087H18.9584C19.732 10.2087 20.4738 9.90137 21.0208 9.35439C21.5678 8.80741 21.8751 8.06554 21.8751 7.29199V6.69408C23.6199 7.39752 25.1684 8.51331 26.3878 9.94592C27.6072 11.3785 28.4613 13.0853 28.877 14.9201C29.2927 16.7549 29.2576 18.6632 28.7747 20.4815C28.2918 22.2997 27.3755 23.9739 26.1042 25.3607ZM16.0417 29.0649C10.2813 28.3503 5.83341 23.4503 5.83341 17.5003C5.83341 16.5962 5.95008 15.7212 6.13966 14.8899L13.1251 21.8753V23.3337C13.1251 24.1072 13.4324 24.8491 13.9794 25.3961C14.5263 25.943 15.2682 26.2503 16.0417 26.2503M17.5001 2.91699C15.585 2.91699 13.6886 3.2942 11.9193 4.02708C10.1499 4.75996 8.54229 5.83416 7.18811 7.18835C4.4532 9.92326 2.91675 13.6326 2.91675 17.5003C2.91675 21.3681 4.4532 25.0774 7.18811 27.8123C8.54229 29.1665 10.1499 30.2407 11.9193 30.9736C13.6886 31.7064 15.585 32.0837 17.5001 32.0837C21.3678 32.0837 25.0771 30.5472 27.8121 27.8123C30.547 25.0774 32.0834 21.3681 32.0834 17.5003C32.0834 15.5852 31.7062 13.6889 30.9733 11.9195C30.2404 10.1502 29.1662 8.54254 27.8121 7.18835C26.4579 5.83416 24.8502 4.75996 23.0809 4.02708C21.3115 3.2942 19.4152 2.91699 17.5001 2.91699Z" fill="#B0A0ED"/>
</svg>
