<svg width="35" height="35" viewBox="0 0 35 35" fill="none" xmlns="http://www.w3.org/2000/svg">
<path d="M18.3648 33.9181L18.3488 33.921L18.2452 33.972L18.216 33.9778L18.1956 33.972L18.0921 33.921C18.0765 33.9161 18.0649 33.9185 18.0571 33.9283L18.0513 33.9428L18.0265 34.567L18.0338 34.5962L18.0483 34.6151L18.2 34.7231L18.2219 34.7289L18.2394 34.7231L18.391 34.6151L18.4085 34.5918L18.4144 34.567L18.3896 33.9443C18.3857 33.9287 18.3774 33.92 18.3648 33.9181ZM18.7513 33.7533L18.7323 33.7562L18.4625 33.8918L18.4479 33.9064L18.4435 33.9224L18.4698 34.5495L18.4771 34.567L18.4888 34.5772L18.7819 34.7128C18.8004 34.7177 18.8145 34.7138 18.8242 34.7012L18.83 34.6808L18.7804 33.7853C18.7756 33.7678 18.7658 33.7571 18.7513 33.7533ZM17.7085 33.7562C17.7021 33.7523 17.6944 33.751 17.6871 33.7526C17.6798 33.7543 17.6733 33.7587 17.6692 33.7649L17.6604 33.7853L17.6108 34.6808C17.6118 34.6983 17.6201 34.7099 17.6356 34.7158L17.6575 34.7128L17.9506 34.5772L17.9652 34.5656L17.971 34.5495L17.9958 33.9224L17.9915 33.9049L17.9769 33.8903L17.7085 33.7562Z" fill="#B0A0ED"/>
<path d="M17.5001 2.91699C25.5545 2.91699 32.0834 9.44595 32.0834 17.5003C32.0834 25.5547 25.5545 32.0837 17.5001 32.0837C9.44571 32.0837 2.91675 25.5547 2.91675 17.5003C2.91675 9.44595 9.44571 2.91699 17.5001 2.91699ZM17.5001 5.83366C14.4059 5.83366 11.4384 7.06282 9.2505 9.25075C7.06258 11.4387 5.83341 14.4061 5.83341 17.5003C5.83341 20.5945 7.06258 23.562 9.2505 25.7499C11.4384 27.9378 14.4059 29.167 17.5001 29.167C20.5943 29.167 23.5617 27.9378 25.7497 25.7499C27.9376 23.562 29.1667 20.5945 29.1667 17.5003C29.1667 14.4061 27.9376 11.4387 25.7497 9.25075C23.5617 7.06282 20.5943 5.83366 17.5001 5.83366ZM17.5001 8.75033C17.8573 8.75037 18.202 8.88151 18.469 9.11887C18.7359 9.35623 18.9064 9.68329 18.9482 10.038L18.9584 10.2087V16.8966L22.9061 20.8443C23.1677 21.1067 23.3195 21.4589 23.3308 21.8292C23.3421 22.1996 23.2121 22.5603 22.967 22.8382C22.722 23.1161 22.3803 23.2904 22.0115 23.3255C21.6426 23.3606 21.2742 23.254 20.9811 23.0274L20.844 22.9064L16.469 18.5314C16.2424 18.3045 16.0968 18.0093 16.0549 17.6914L16.0417 17.5003V10.2087C16.0417 9.82188 16.1954 9.45095 16.4689 9.17746C16.7424 8.90397 17.1133 8.75033 17.5001 8.75033Z" fill="#B0A0ED"/>
</svg>
